<?xml version="1.0" standalone="no"?>
<!DOCTYPE svg PUBLIC "-//W3C//DTD SVG 20010904//EN"
 "http://www.w3.org/TR/2001/REC-SVG-20010904/DTD/svg10.dtd">
<svg version="1.0" xmlns="http://www.w3.org/2000/svg"
 width="504.000000pt" height="429.000000pt" viewBox="0 0 504.000000 429.000000"
 preserveAspectRatio="xMidYMid meet">

<g transform="translate(0.000000,429.000000) scale(0.100000,-0.100000)"
fill="#000000" stroke="none">
<path d="M1737 2923 c-4 -3 -7 -291 -7 -640 l0 -633 85 0 c78 0 85 2 85 20 0
18 -7 20 -65 20 l-65 0 0 600 0 600 65 0 c58 0 65 2 65 20 0 18 -7 20 -78 20
-43 0 -82 -3 -85 -7z"/>
<path d="M3167 2924 c-4 -4 -7 -13 -7 -21 0 -9 18 -13 65 -13 l65 0 0 -600 0
-600 -65 0 c-58 0 -65 -2 -65 -20 0 -18 7 -20 85 -20 l85 0 -2 638 -3 637 -75
3 c-42 1 -79 0 -83 -4z"/>
<path d="M2320 2290 l0 -330 30 0 30 0 0 330 0 330 -30 0 -30 0 0 -330z"/>
<path d="M2680 2290 l0 -330 30 0 30 0 0 330 0 330 -30 0 -30 0 0 -330z"/>
<path d="M2200 2290 l0 -150 35 0 35 0 0 150 0 150 -35 0 -35 0 0 -150z"/>
<path d="M2560 2290 l0 -150 30 0 30 0 0 150 0 150 -30 0 -30 0 0 -150z"/>
<path d="M2800 2290 l0 -150 30 0 30 0 0 150 0 150 -30 0 -30 0 0 -150z"/>
<path d="M2080 2290 l0 -60 35 0 35 0 0 60 0 60 -35 0 -35 0 0 -60z"/>
<path d="M2440 2290 l0 -60 30 0 30 0 0 60 0 60 -30 0 -30 0 0 -60z"/>
<path d="M2910 2290 l0 -60 35 0 35 0 0 60 0 60 -35 0 -35 0 0 -60z"/>
<path d="M2657 1532 c-36 -38 -66 -126 -79 -234 -10 -79 -15 -92 -40 -114 -17
-13 -42 -24 -58 -24 -26 0 -31 5 -40 41 -6 22 -9 46 -7 52 2 6 28 16 58 22 45
8 55 14 57 33 3 19 -1 22 -27 22 l-31 0 24 38 c34 52 43 105 22 137 -40 61
-112 9 -147 -106 -16 -54 -25 -68 -42 -71 -32 -4 -36 -45 -4 -53 18 -5 24 -13
24 -36 0 -16 -6 -29 -12 -29 -6 0 -22 -11 -35 -25 -39 -41 -54 -33 -44 23 4
26 8 63 8 82 1 31 -2 35 -26 38 -32 4 -63 -15 -90 -55 l-18 -28 6 43 c6 41 6
42 -20 42 -21 0 -30 -7 -42 -35 -7 -19 -14 -45 -14 -57 0 -16 -12 -30 -42 -47
l-41 -23 7 52 c4 29 10 66 13 81 5 26 3 29 -20 29 -31 0 -40 -12 -61 -77 -16
-48 -40 -82 -51 -71 -3 3 1 35 9 71 7 37 11 69 8 72 -3 3 -16 5 -28 5 -26 0
-39 -19 -49 -71 -7 -40 -53 -101 -61 -82 -3 7 -18 31 -34 54 -22 34 -26 47
-19 66 14 37 11 43 -21 43 -26 0 -33 -7 -61 -62 -17 -35 -42 -76 -55 -91 -13
-16 -24 -35 -24 -43 0 -28 39 -13 75 28 29 35 38 40 45 28 16 -26 11 -39 -17
-42 -51 -6 -37 -68 15 -68 29 0 84 16 124 35 25 13 29 12 38 -6 12 -22 59 -26
78 -7 7 7 12 10 12 7 0 -3 -27 -32 -59 -65 -33 -33 -63 -72 -66 -87 -11 -42 2
-76 32 -83 63 -16 110 32 139 145 16 62 21 70 65 98 l47 32 6 -30 c5 -26 10
-30 32 -27 23 2 30 12 45 55 10 29 25 63 34 75 16 22 16 21 10 -33 -9 -75 4
-99 53 -99 27 0 48 9 74 30 l36 30 30 -30 c37 -36 90 -40 139 -11 31 19 31 19
36 0 3 -12 14 -19 30 -19 30 0 35 7 59 75 10 27 25 56 33 64 14 14 14 9 9 -47
-5 -43 -3 -66 6 -77 18 -21 67 -19 106 6 l34 21 26 -21 c36 -28 107 -28 153 0
l33 20 20 -20 c24 -26 68 -27 100 -1 25 19 26 19 43 0 22 -24 77 -27 95 -5 12
14 15 14 30 0 9 -8 28 -15 43 -15 35 0 97 55 97 86 0 31 -20 31 -50 -1 -34
-36 -54 -33 -46 8 21 117 21 117 -8 117 -14 0 -26 5 -26 10 0 17 -53 11 -88
-10 -18 -11 -40 -37 -49 -57 -21 -46 -62 -93 -81 -93 -11 0 -13 8 -8 38 4 20
9 58 13 85 6 45 5 47 -19 47 -32 0 -44 -15 -53 -65 -12 -63 -61 -105 -125
-105 -37 0 -40 15 -4 24 38 10 74 50 74 84 0 94 -157 74 -175 -22 -7 -33 -47
-86 -65 -86 -13 0 -12 43 0 95 13 54 5 75 -28 75 -34 0 -68 -23 -93 -64 -10
-17 -19 -25 -19 -19 0 7 22 41 50 75 74 91 96 179 58 225 -18 22 -63 15 -91
-15z m53 -59 c0 -32 -32 -107 -49 -118 -13 -8 -9 20 16 98 16 52 33 62 33 20z
m-234 -82 c-9 -16 -20 -32 -25 -35 -11 -7 6 69 22 98 12 21 12 20 15 -6 2 -15
-4 -40 -12 -57z m853 -170 c-11 -52 -31 -73 -51 -53 -15 15 -1 60 28 89 14 14
27 23 30 21 2 -3 -1 -29 -7 -57z m-369 35 c0 -15 -16 -30 -42 -39 -14 -5 -15
-2 -6 24 10 30 48 42 48 15z m-1068 -263 c-18 -49 -42 -69 -42 -35 0 18 44 82
56 82 2 0 -4 -21 -14 -47z"/>
<path d="M3101 1426 c-22 -26 -10 -61 22 -64 37 -4 59 15 55 47 -2 21 -9 27
-34 29 -18 2 -36 -3 -43 -12z"/>
</g>
</svg>
